<?xml version="1.0" standalone="no"?>
<!DOCTYPE svg PUBLIC "-//W3C//DTD SVG 20010904//EN"
 "http://www.w3.org/TR/2001/REC-SVG-20010904/DTD/svg10.dtd">
<svg version="1.0" xmlns="http://www.w3.org/2000/svg"
 width="300.000000pt" height="300.000000pt" viewBox="0 0 300.000000 300.000000"
 preserveAspectRatio="xMidYMid meet">
<metadata>
Created by potrace 1.10, written by Peter Selinger 2001-2011
</metadata>
<g transform="translate(0.000000,300.000000) scale(0.100000,-0.100000)"
fill="#51b3e4" stroke="none">
<path d="M476 2984 c-189 -41 -335 -155 -414 -324 -16 -36 -35 -89 -41 -118
-16 -75 -15 -2010 0 -2084 36 -171 160 -324 320 -397 136 -62 125 -61 1158
-61 1050 0 1030 -1 1175 69 122 59 224 167 279 296 46 109 47 130 47 1135 0
1005 -1 1026 -47 1135 -77 180 -242 313 -438 350 -114 22 -1936 21 -2039 -1z
m1341 -840 c51 -137 105 -280 119 -319 28 -75 42 -112 72 -190 11 -27 59 -153
107 -280 48 -126 96 -252 107 -280 10 -27 26 -70 35 -95 8 -25 21 -58 28 -75
41 -94 111 -289 105 -294 -3 -2 -82 -6 -176 -8 l-171 -5 -15 34 c-56 122 -368
924 -443 1140 -27 75 -51 138 -66 173 -5 11 -13 34 -18 50 -5 17 -22 62 -36
100 -32 83 -105 285 -105 290 0 9 66 11 209 9 l154 -2 94 -248z m-587 -239
c77 -188 130 -330 130 -347 0 -20 -385 -925 -402 -946 -9 -11 -46 -13 -174
-10 -89 2 -165 6 -168 9 -4 3 21 71 54 150 75 177 72 169 109 252 17 37 31 72
31 78 0 6 7 23 14 37 8 15 45 99 81 187 36 88 74 178 84 200 10 22 29 65 41
95 12 30 28 69 35 85 8 17 37 87 67 157 29 70 57 127 61 125 5 -1 21 -34 37
-72z"/>
</g>
</svg>
